# xmcd
#
# Track frame offsets:
# 150
# 16778
# 30303
# 45062
# 56340
# 71350
# 85276
# 100557
# 115675
# 128384
# 144103
# 157545
# 171144
# 184322
# 200077
# 215604
# 230389
#
# Disc length: 3241 seconds
#
#
# Revision: 0
# Processed by: cddbd v1.5.2PL0 Copyright (c) Steve Scherf et al.
# Submitted via: FreeRIP 2.951 
#
DISCID=c10ca711
DTITLE=Die Edlseer - Überall auf der Welt scheint die Sonne
DYEAR=2007
DGENRE=
TTITLE0=Überall auf der Welt scheint die Sonne
TTITLE1=Ein Herz aus Volksmusik
TTITLE2=Steirer samma
TTITLE3=Beim alten Pflug
TTITLE4=Du bist leben für mi
TTITLE5=Um die Häuser ziehn
TTITLE6=Herzilein lass das sein
TTITLE7=Alphornklang
TTITLE8=Jaba Daba
TTITLE9=Schlag ein
TTITLE10=Typisch steirisch
TTITLE11=Bozner Bergsteiger Marsch
TTITLE12=Wenn i a Maderl seh
TTITLE13=Hey Girl
TTITLE14=Gipfelwind und Heimaterde
TTITLE15=Edlseer Cowboys
TTITLE16=A Musikant im Trachtengwand
EXTD=
EXTT0=
EXTT1=
EXTT2=
EXTT3=
EXTT4=
EXTT5=
EXTT6=
EXTT7=
EXTT8=
EXTT9=
EXTT10=
EXTT11=
EXTT12=
EXTT13=
EXTT14=
EXTT15=
EXTT16=
PLAYORDER=
